<?xml version="1.0" encoding="utf-8"?>
<!-- Generator: Adobe Illustrator 21.0.0, SVG Export Plug-In . SVG Version: 6.00 Build 0)  -->
<svg version="1.1" id="Layer_2" xmlns="http://www.w3.org/2000/svg" xmlns:xlink="http://www.w3.org/1999/xlink" x="0px" y="0px"
	 viewBox="0 0 200 200" style="enable-background:new 0 0 200 200;" xml:space="preserve">
<style type="text/css">
	.st0{fill:#FFFFFF;}
	.st1{fill:#313131;}
	.st2{fill:#D8D8D8;}
	.st3{opacity:0.53;fill:#5B5B5B;}
	.st4{fill:#5D564A;}
	.st5{fill:#EFEFEF;}
	.st6{fill:#E2E3E4;}
	.st7{fill:#443D31;}
	.st8{fill:#202E3A;}
</style>
<g id="Layer_2_copy">
	<g>
		<path class="st0" d="M100.3,200C52.2,200,13,160.8,13,112.7c0-21.5,7.6-41.6,21.6-57.5c-0.4-0.3-0.7-0.6-1-1l-0.1-0.1
			c-2.4-0.5-4.5-1.8-6.1-3.7c-4-4.7-3.3-11.8,1.4-15.7l7.1-5.9c2-1.7,4.6-2.6,7.2-2.6c3.3,0,6.4,1.5,8.6,4c1.6,1.9,2.5,4.2,2.6,6.7
			l0.1,0.1c0.3,0.4,0.6,0.7,0.8,1.1c9-5.5,19-9.3,29.5-11.2v-3c-4.1-1.7-6.9-5.7-6.9-10.3v-2.3C77.6,5,82.6,0,88.8,0h23.1
			C118,0,123,5,123,11.2v2.3c0,4.7-2.9,8.7-6.9,10.3v3c10.4,1.9,20.4,5.7,29.5,11.2c0.2-0.4,0.5-0.8,0.8-1.1l0.1-0.1
			c0.1-2.4,1-4.8,2.6-6.7c2.1-2.5,5.2-4,8.5-4c2.6,0,5.2,0.9,7.2,2.6l7.1,5.9c2.3,1.9,3.7,4.6,3.9,7.6c0.3,3-0.7,5.9-2.6,8.1
			c-1.6,1.9-3.7,3.2-6.1,3.7l-0.1,0.1c-0.3,0.4-0.6,0.7-1,1c14,15.9,21.6,36,21.6,57.5C187.6,160.8,148.5,200,100.3,200z"/>
	</g>
</g>
<g>
	<rect x="147" y="40" transform="matrix(0.6428 -0.766 0.766 0.6428 22.0392 136.5315)" class="st1" width="20.8" height="9.2"/>
	<path class="st1" d="M168.2,46.1c1.6-2,1.4-4.9-0.6-6.5l-7.1-5.9c-2-1.6-4.9-1.4-6.5,0.6c-1.1,1.3-1.3,3-0.8,4.5l-1.9,2.3
		c-0.8,1-0.7,2.4,0.3,3.3l7.1,5.9c1,0.8,2.4,0.7,3.2-0.3l1.9-2.3C165.4,48,167.1,47.5,168.2,46.1z"/>
</g>
<g>
	<rect x="38.6" y="34.3" transform="matrix(0.766 -0.6428 0.6428 0.766 -18.5837 38.2162)" class="st1" width="9.2" height="20.8"/>
	<path class="st1" d="M46.6,34.3c-1.6-2-4.5-2.2-6.5-0.6L33,39.6c-2,1.6-2.2,4.5-0.6,6.5c1.1,1.3,2.8,1.8,4.3,1.6l1.9,2.3
		c0.8,1,2.3,1.1,3.3,0.3l7.1-5.9c1-0.8,1.1-2.3,0.3-3.3l-1.9-2.3C47.9,37.3,47.7,35.6,46.6,34.3z"/>
</g>
<path class="st1" d="M100.3,31.9c3.1,0,6.2,0.2,9.2,0.5V18.1H91.1v14.4C94.1,32.1,97.2,31.9,100.3,31.9z"/>
<rect x="91.1" y="18.1" class="st2" width="18.5" height="2.3"/>
<path class="st1" d="M111.8,18.1H88.8c-2.5,0-4.6-2.1-4.6-4.6v-2.3c0-2.5,2.1-4.6,4.6-4.6h23.1c2.5,0,4.6,2.1,4.6,4.6v2.3
	C116.5,16,114.4,18.1,111.8,18.1z"/>
<rect x="148.8" y="43.8" transform="matrix(0.6428 -0.7661 0.7661 0.6428 21.5361 138.4183)" class="st3" width="20.8" height="4.6"/>
<path class="st3" d="M167.6,39.6l-3.5-3l-8.9,10.6l3.5,3c1,0.8,2.4,0.7,3.2-0.3l1.9-2.3c1.6,0.3,3.2-0.3,4.3-1.6
	C169.8,44.2,169.6,41.3,167.6,39.6z"/>
<rect x="42.7" y="32.8" transform="matrix(0.766 -0.6428 0.6428 0.766 -17.2164 39.0014)" class="st3" width="4.6" height="20.8"/>
<path class="st3" d="M40.1,33.7l-3.5,3l8.9,10.6l3.5-3c1-0.8,1.1-2.3,0.3-3.3l-1.9-2.3c0.5-1.5,0.3-3.2-0.8-4.5
	C44.9,32.3,42,32.1,40.1,33.7z"/>
<path class="st3" d="M100.3,31.9c3.1,0,6.2,0.2,9.2,0.5V18.1h-9.2V31.9z"/>
<path class="st3" d="M111.8,6.5h-11.5v11.5h11.5c2.5,0,4.6-2.1,4.6-4.6v-2.3C116.5,8.6,114.4,6.5,111.8,6.5z"/>
<circle class="st1" cx="100.3" cy="112.7" r="80.8"/>
<g>
	<circle class="st4" cx="100.3" cy="112.7" r="71.5"/>
	<circle class="st5" cx="100.3" cy="112.7" r="69.2"/>
	<path class="st6" d="M35.7,119.6c0-39.5,32-71.5,71.5-71.5c11.9,0,23.1,2.9,33,8.1c-11.3-8-25-12.7-39.9-12.7
		c-38.2,0-69.2,31-69.2,69.2c0,14.9,4.7,28.6,12.7,39.9C38.6,142.7,35.7,131.5,35.7,119.6z"/>
	<g>
		<path class="st4" d="M100.3,55c1.3,0,2.3-1,2.3-2.3v-9.2c-0.8,0-1.5-0.1-2.3-0.1s-1.5,0-2.3,0.1v9.2C98,54,99,55,100.3,55z"/>
		<path class="st4" d="M67,57.3c0.2,0.4,0.6,0.6,1,0.6c0.2,0,0.4,0,0.6-0.2c0.6-0.3,0.7-1,0.4-1.6l-2.3-4c-0.7,0.4-1.3,0.8-2,1.1
			L67,57.3z"/>
		<path class="st4" d="M66.7,173.2l2.3-4c0.3-0.6,0.1-1.3-0.4-1.6c-0.6-0.3-1.3-0.1-1.6,0.4l-2.3,4C65.4,172.5,66,172.8,66.7,173.2z
			"/>
		<path class="st4" d="M156.8,144c-0.5-0.3-1.3-0.1-1.6,0.4c-0.3,0.6-0.1,1.3,0.4,1.6l4,2.3c0.4-0.7,0.8-1.3,1.1-2L156.8,144z"/>
		<path class="st4" d="M169.5,110.4h-9.2c-1.3,0-2.3,1-2.3,2.3s1,2.3,2.3,2.3h9.2c0-0.8,0.1-1.5,0.1-2.3S169.5,111.2,169.5,110.4z"
			/>
		<path class="st4" d="M155.3,81c0.2,0.4,0.6,0.6,1,0.6c0.2,0,0.4,0,0.6-0.2l4-2.3c-0.4-0.7-0.8-1.3-1.1-2l-4,2.3
			C155.1,79.7,154.9,80.4,155.3,81z"/>
		<path class="st4" d="M133.9,52.2l-2.3,4c-0.3,0.6-0.1,1.3,0.4,1.6c0.2,0.1,0.4,0.2,0.6,0.2c0.4,0,0.8-0.2,1-0.6l2.3-4
			C135.3,52.9,134.6,52.5,133.9,52.2z"/>
		<path class="st4" d="M44.9,146c0.6-0.3,0.7-1,0.4-1.6c-0.3-0.6-1-0.7-1.6-0.4l-4,2.3c0.4,0.7,0.8,1.3,1.1,2L44.9,146z"/>
		<path class="st4" d="M42.6,112.7c0-1.3-1-2.3-2.3-2.3h-9.2c0,0.8-0.1,1.5-0.1,2.3s0,1.5,0.1,2.3h9.2C41.6,115,42.6,114,42.6,112.7
			z"/>
		<path class="st4" d="M102.6,181.9v-9.2c0-1.3-1-2.3-2.3-2.3s-2.3,1-2.3,2.3v9.2c0.8,0,1.5,0.1,2.3,0.1S101.8,181.9,102.6,181.9z"
			/>
		<path class="st4" d="M133.6,168.1c-0.3-0.6-1-0.7-1.6-0.4c-0.6,0.3-0.7,1-0.4,1.6l2.3,4c0.7-0.4,1.3-0.8,2-1.1L133.6,168.1z"/>
		<path class="st4" d="M43.8,81.4c0.2,0.1,0.4,0.2,0.6,0.2c0.4,0,0.8-0.2,1-0.6c0.3-0.6,0.1-1.3-0.4-1.6l-4-2.3
			c-0.4,0.7-0.8,1.3-1.1,2L43.8,81.4z"/>
	</g>
	<path class="st7" d="M43.4,151.9c-0.8-1.2-1.6-2.4-2.4-3.7l0.5-0.3c-0.3-0.7-0.6-1.4-0.9-2.2l-0.8,0.4c-5.2-9.3-8.3-19.9-8.6-31.2
		h4.6c0.1-1.6,0.3-3.1,0.4-4.6h-5.1c0.4-11.3,3.5-21.9,8.6-31.2l3.9,2.2c0.2,0.1,0.4,0.2,0.6,0.2c0.4,0,0.8-0.2,1-0.6
		c0.3-0.6,0.1-1.3-0.4-1.6L41,77.1c5.8-9.7,14-17.9,23.7-23.7l2.2,3.9c0.2,0.4,0.6,0.6,1,0.6c0.2,0,0.4,0,0.6-0.2
		c0.6-0.3,0.7-1,0.4-1.6l-2.2-3.9c9.3-5.2,19.9-8.3,31.2-8.6v5.1c1.5-0.2,3.1-0.4,4.6-0.4v-4.6c11.3,0.4,21.9,3.5,31.2,8.6l-0.4,0.8
		c0.7,0.3,1.4,0.6,2.2,0.9l0.3-0.5c1.3,0.8,2.5,1.5,3.7,2.4c5.3,2.7,10.2,6,14.7,9.9c-13.1-15-32.4-24.5-53.9-24.5
		c-39.5,0-71.5,32-71.5,71.5c0,21.5,9.5,40.8,24.5,53.9C49.4,162.2,46.1,157.2,43.4,151.9z"/>
	<path class="st2" d="M111.3,117.9c0.7-2.1,0.7-4.3-0.2-6.4l11.7-32.8l-21.7,27.2c-10.7,1.7-10.1,17.2,0.6,18.2L111.3,117.9z"/>
	<g>
		<polygon class="st8" points="94.3,109.3 120.5,76.4 106.4,116.1 		"/>
		<path class="st2" d="M109,115.6c-0.6,1.9-1.9,3.6-3.7,4.8c-1.8,1.2-3.9,1.6-5.9,1.4l2.1,2.3c2.1,0.3,4.2-0.2,6.1-1.4
			c1.3-0.9,2.3-2,3-3.3L109,115.6z"/>
		
			<ellipse transform="matrix(0.8383 -0.5453 0.5453 0.8383 -45.2235 72.9208)" class="st8" cx="100.3" cy="112.7" rx="9.2" ry="9.2"/>
		
			<ellipse transform="matrix(0.8381 -0.5455 0.5455 0.8381 -45.2332 72.9562)" class="st2" cx="100.3" cy="112.7" rx="4.6" ry="4.6"/>
	</g>
</g>
</svg>
